<svg xmlns="http://www.w3.org/2000/svg" version="1.1" xmlns:xlink="http://www.w3.org/1999/xlink" xmlns:svgjs="http://svgjs.dev/svgjs" width="1500" height="1500" viewBox="0 0 1500 1500"><rect width="1500" height="1500" fill="#581381"></rect><g transform="matrix(0.6666666666666666,0,0,0.6666666666666666,250,250)"><svg viewBox="0 0 280 280" data-background-color="#581381" preserveAspectRatio="xMidYMid meet" height="1500" width="1500" xmlns="http://www.w3.org/2000/svg" xmlns:xlink="http://www.w3.org/1999/xlink"><g id="tight-bounds" transform="matrix(1,0,0,1,0,0)"><svg viewBox="0 0 280 280" height="280" width="280"><g><svg viewBox="0 0 280 280" height="280" width="280"><g><svg viewBox="0 0 280 280" height="280" width="280"><g id="textblocktransform"><svg viewBox="0 0 280 280" height="280" width="280" id="textblock"><g><svg viewBox="0 0 280 280" height="280" width="280"><g transform="matrix(1,0,0,1,96.82929253093019,90.50252531694167)"><svg viewBox="0 0 86.34141493813962 98.99494936611666" height="98.99494936611666" width="86.34141493813962"><g id="icon-0"><svg xmlns="http://www.w3.org/2000/svg" xmlns:xlink="http://www.w3.org/1999/xlink" version="1.1" x="0" y="0" viewBox="6.391 0 87.21799999999999 100" enable-background="new 0 0 100 100" xml:space="preserve" height="98.99494936611666" width="86.34141493813962" class="icon-jxe-0" data-fill-palette-color="accent" id="jxe-0"><path fill="#fff2ff" d="M77.806 12.728C67.152 12.728 56.381 8.48 50 0 43.62 8.479 32.846 12.727 22.193 12.727 16.685 12.727 11.21 11.592 6.391 9.318 6.931 23.634 7.995 38.143 10.39 52.28 11.612 60.029 12.812 69.168 17.056 75.948 20.785 82.476 26.571 87.817 32.778 91.954A69.4 69.4 0 0 0 47.965 99.566C48.818 99.869 49.467 100 50.065 100 51.101 100 51.982 99.606 53.499 99.026 65.779 94.311 78.959 85.638 84.381 73.171 89.259 62.078 90.335 48.898 91.587 36.981 92.555 27.792 93.258 18.555 93.609 9.318 88.79 11.592 83.312 12.728 77.806 12.728M81.641 35.937L81.374 38.505C80.978 42.329 80.577 46.199 80.048 50.001H50V89.659L49.997 89.66A59.5 59.5 0 0 1 38.324 83.634C32.66 79.859 28.308 75.487 25.74 70.989L25.64 70.814 25.533 70.643C22.656 66.046 21.517 58.733 20.512 52.28L20.268 50.723 20.259 50.667 20.249 50.611C20.215 50.41 20.184 50.203 20.15 50.002H50V13.899C57.62 19.538 67.418 22.728 77.806 22.728A50 50 0 0 0 82.852 22.471 440 440 0 0 1 81.641 35.937" data-fill-palette-color="accent"></path></svg></g></svg></g><g id="text-0"><path d="M27.403 99.927v0c-0.778 2.255-1.874 3.686-3.288 4.293-1.414 0.608-3.003 0.607-4.769-0.002v0c-0.457-0.158-1-0.392-1.628-0.703-0.624-0.302-1.373-0.68-2.248-1.133v0c-1.258-0.679-2.39-1.254-3.395-1.723-1.006-0.47-2.134-0.92-3.383-1.352v0c-1.443-0.498-2.627-0.86-3.551-1.085v0c0.113 0.551 0.131 0.936 0.055 1.154v0c-0.151 0.438-0.716 0.488-1.695 0.15v0c-0.76-0.262-1.345-0.656-1.756-1.179-0.41-0.524-0.712-1.259-0.904-2.205v0c-0.218-0.955-0.296-2.099-0.232-3.432 0.07-1.331 0.344-2.689 0.822-4.074v0c0.778-2.255 1.884-3.787 3.318-4.598 1.433-0.81 2.99-0.925 4.672-0.344v0c1.089 0.376 2.018 0.953 2.787 1.73 0.761 0.782 1.35 1.717 1.768 2.805v0c1.713-3.208 4.254-4.231 7.623-3.067v0c1.817 0.627 3.294 1.714 4.433 3.261 1.139 1.547 1.825 3.348 2.06 5.404v0c0.252 2.005 0.023 4.038-0.689 6.1zM23.441 96.742v0c0.423-1.224 0.634-2.391 0.635-3.501 0.001-1.11-0.22-2.077-0.664-2.9-0.446-0.817-1.104-1.376-1.973-1.676v0c-1.114-0.385-2.039-0.264-2.775 0.361-0.735 0.626-1.281 1.454-1.636 2.485v0c-0.151 0.438-0.297 0.997-0.438 1.676v0c-0.035 0.291-0.114 0.613-0.237 0.968v0c-0.207 0.599-0.623 1.011-1.248 1.234-0.625 0.224-1.305 0.209-2.039-0.044v0c-0.515-0.178-0.761-0.522-0.736-1.033v0c0.273-3.611-0.662-5.787-2.808-6.528v0c-1.714-0.592-2.978 0.295-3.794 2.659v0c-0.3 0.87-0.522 1.993-0.666 3.371v0c1.333 0.46 2.705 1.009 4.113 1.648 1.403 0.636 2.846 1.361 4.332 2.176v0c1.024 0.541 1.895 0.986 2.611 1.334 0.714 0.355 1.303 0.612 1.766 0.772v0c1.469 0.507 2.636 0.499 3.502-0.024 0.866-0.523 1.551-1.516 2.055-2.978z" fill="#f5a1e8" data-fill-palette-color="primary"></path><path d="M55.262 54.5v0c-0.298 0.27-0.614 0.433-0.95 0.49-0.336 0.056-0.591-0.053-0.766-0.326v0c-1.226-1.989-2.522-3.964-3.89-5.927-1.372-1.957-2.869-3.829-4.49-5.615v0c-1.429-1.574-2.776-2.952-4.042-4.132-1.265-1.18-2.716-2.095-4.354-2.743v0c-0.321-0.141-0.59-0.265-0.807-0.372-0.216-0.117-0.393-0.251-0.531-0.402v0c-0.366-0.404-0.487-1.013-0.36-1.827 0.136-0.814 0.471-1.463 1.006-1.948v0c0.742-0.673 1.675-0.669 2.8 0.012 1.13 0.687 2.523 1.943 4.182 3.769v0c1.993 2.195 3.598 4.221 4.815 6.08 1.227 1.859 2.13 3.299 2.708 4.321v0l0.191-0.049c-0.602-1.515-1.045-3.037-1.329-4.565-0.283-1.529-0.289-2.959-0.017-4.292 0.267-1.328 0.932-2.476 1.997-3.443v0c1.125-1.022 2.29-1.457 3.494-1.307 1.204 0.15 2.259 0.724 3.166 1.723v0c0.389 0.429 0.72 0.879 0.991 1.35 0.272 0.471 0.517 0.934 0.736 1.389v0c0.206 0.439 0.423 0.872 0.654 1.298 0.24 0.426 0.525 0.821 0.855 1.185v0c0.596 0.656 1.242 1.049 1.94 1.179 0.694 0.125 1.383 0.033 2.069-0.277v0c0.188-0.097 0.354-0.142 0.498-0.135 0.139 0.012 0.296 0.113 0.47 0.305v0c0.174 0.192 0.361 0.524 0.56 0.997 0.204 0.478 0.274 1.026 0.21 1.646-0.059 0.615-0.418 1.222-1.079 1.822v0c-0.848 0.77-1.781 1.065-2.8 0.885-1.019-0.179-1.964-0.749-2.834-1.707v0c-0.426-0.469-0.813-0.992-1.162-1.569-0.348-0.576-0.661-1.144-0.938-1.702v0c-0.302-0.545-0.588-1.054-0.86-1.525-0.272-0.471-0.533-0.846-0.785-1.124v0c-0.889-0.979-1.843-1.006-2.862-0.08v0c-0.853 0.774-1.327 1.762-1.424 2.963-0.096 1.192 0.045 2.458 0.425 3.799 0.384 1.345 0.871 2.642 1.462 3.891v0l0.982 1.082c0.715 0.787 1.076 1.642 1.085 2.564 0.004 0.926-0.335 1.699-1.016 2.317z" fill="#f5a1e8" data-fill-palette-color="primary"></path><path d="M109.122 23.426v0c-1.675 0.409-3.15 0.215-4.425-0.582-1.275-0.797-2.152-2.175-2.631-4.135v0c-0.34-1.39-0.404-2.844-0.192-4.362 0.205-1.516 0.687-2.96 1.447-4.331 0.761-1.364 1.785-2.558 3.071-3.581 1.285-1.029 2.834-1.766 4.649-2.208v0c1.675-0.409 3.179-0.471 4.511-0.187 1.324 0.28 2.106 0.91 2.345 1.89v0c0.061 0.252 0.112 0.587 0.15 1.005 0.046 0.417 0.056 0.761 0.032 1.034v0c-0.024 0.244-0.091 0.475-0.2 0.691-0.114 0.224-0.296 0.367-0.547 0.428v0c-0.106 0.026-0.325 0.034-0.658 0.024v0c0.03 0.61 0.087 1.203 0.172 1.778 0.076 0.571 0.182 1.134 0.318 1.691v0c0.26 1.066 0.653 1.97 1.178 2.711 0.518 0.743 1.278 1.098 2.28 1.064v0c0.265-0.008 0.487 0.025 0.666 0.1 0.18 0.075 0.314 0.295 0.403 0.659v0c0.074 0.305 0.094 0.714 0.058 1.228-0.036 0.514-0.226 1.013-0.571 1.497-0.338 0.482-0.911 0.822-1.719 1.019v0c-1.092 0.267-2.028 0.071-2.805-0.588-0.783-0.651-1.355-1.714-1.716-3.19v0c-0.422 1.548-1.106 2.897-2.053 4.047-0.947 1.15-2.201 1.916-3.763 2.298zM109.397 18.739v0c1.119-0.273 2.017-0.861 2.695-1.763 0.683-0.91 1.133-1.953 1.351-3.129v0c0.141-0.743 0.198-1.532 0.169-2.367-0.022-0.836-0.102-1.652-0.24-2.446v0c-0.532-0.109-1.119-0.158-1.762-0.148-0.65 0.011-1.309 0.099-1.977 0.262v0c-1.708 0.417-2.989 1.26-3.844 2.528-0.86 1.276-1.105 2.669-0.737 4.178v0c0.273 1.119 0.801 1.944 1.583 2.476 0.782 0.532 1.703 0.668 2.762 0.409z" fill="#f5a1e8" data-fill-palette-color="primary"></path><path d="M168.046 22.714v0c-0.753-0.191-1.342-0.586-1.766-1.186-0.426-0.593-0.536-1.532-0.33-2.815v0c0.18-0.96 0.326-2.034 0.437-3.222 0.105-1.19 0.149-2.335 0.134-3.435-0.016-1.101-0.131-1.991-0.346-2.672v0c-0.114-0.352-0.271-0.635-0.47-0.847-0.199-0.212-0.529-0.408-0.99-0.588v0c-0.297-0.103-0.481-0.252-0.551-0.446-0.069-0.2-0.058-0.479 0.032-0.836v0c0.29-1.143 0.818-1.909 1.585-2.297 0.765-0.382 1.55-0.472 2.356-0.267v0c0.839 0.213 1.467 0.66 1.885 1.342 0.416 0.689 0.666 1.519 0.75 2.49 0.078 0.969 0.044 2.004-0.102 3.106-0.146 1.102-0.357 2.198-0.634 3.288v0c-0.112 0.443-0.237 0.907-0.374 1.392-0.137 0.485-0.248 0.893-0.332 1.224v0c-0.079 0.31-0.076 0.564 0.008 0.761 0.084 0.197 0.307 0.342 0.67 0.433v0c0.443 0.112 0.991 0.111 1.646-0.004 0.648-0.117 1.324-0.353 2.026-0.709 0.695-0.358 1.318-0.829 1.867-1.415 0.549-0.585 0.93-1.297 1.143-2.135v0c0.119-0.469 0.17-0.99 0.154-1.564-0.018-0.567-0.15-1.072-0.397-1.514v0c-0.245-0.449-0.416-0.798-0.514-1.048-0.098-0.25-0.112-0.514-0.042-0.791v0c0.127-0.502 0.475-0.902 1.043-1.201 0.561-0.301 1.188-0.497 1.879-0.589 0.691-0.092 1.275-0.077 1.75 0.043v0c0.806 0.204 1.237 0.669 1.292 1.393 0.049 0.722-0.03 1.49-0.236 2.303v0c-0.389 1.533-1.073 3.064-2.052 4.594-0.979 1.53-2.127 2.898-3.445 4.104-1.312 1.207-2.672 2.106-4.08 2.698-1.409 0.592-2.74 0.729-3.996 0.41z" fill="#f5a1e8" data-fill-palette-color="primary"></path><path d="M206.607 53.55v0c-0.874-0.792-1.411-1.706-1.612-2.743-0.201-1.037 0.056-1.95 0.77-2.737v0c0.558-0.616 1.219-0.974 1.981-1.075 0.772-0.101 1.435 0.101 1.991 0.604v0c0.252 0.229 0.395 0.436 0.429 0.623 0.028 0.182 0.025 0.353-0.011 0.515v0c-0.08 0.433-0.1 0.852-0.062 1.255 0.044 0.408 0.256 0.783 0.635 1.126v0c0.515 0.467 1.177 0.736 1.986 0.807 0.804 0.067 1.621 0.053 2.452-0.041v0c0.725-0.079 1.685-0.266 2.881-0.561 1.202-0.291 2.492-0.685 3.872-1.182v0c-0.84-0.017-1.543-0.119-2.107-0.309-0.569-0.184-1.035-0.441-1.398-0.771v0c-0.444-0.403-0.733-0.963-0.865-1.68-0.127-0.713 0.173-1.577 0.901-2.592v0c0.57-0.761 1.151-1.651 1.743-2.669 0.592-1.009 1.116-2.033 1.571-3.073 0.46-1.045 0.747-2.017 0.862-2.916v0c0.087-0.39 0.092-0.735 0.014-1.036-0.077-0.3-0.277-0.638-0.6-1.012v0c-0.239-0.254-0.337-0.476-0.293-0.666 0.043-0.2 0.188-0.436 0.436-0.709v0c0.696-0.768 1.468-1.194 2.318-1.279 0.855-0.081 1.643 0.206 2.365 0.86v0c0.874 0.792 1.198 1.697 0.973 2.717-0.225 1.019-0.633 2.135-1.224 3.346v0c-0.237 0.475-0.584 1.081-1.04 1.817-0.451 0.731-0.958 1.504-1.522 2.318-0.558 0.809-1.117 1.563-1.676 2.261v0c-0.4 0.493-0.345 0.97 0.165 1.432v0c0.682 0.618 1.525 0.991 2.53 1.12 1 0.134 2.007 0.039 3.018-0.286 1.012-0.325 1.856-0.861 2.534-1.608v0c0.384-0.424 0.677-0.854 0.877-1.288 0.205-0.439 0.296-0.9 0.272-1.381v0c0.016-0.454 0.034-0.819 0.055-1.096 0.016-0.271 0.122-0.515 0.318-0.732v0c0.325-0.359 0.801-0.544 1.428-0.555 0.636-0.012 1.29 0.093 1.962 0.316 0.667 0.218 1.182 0.492 1.546 0.821v0c0.641 0.581 0.793 1.271 0.456 2.069-0.337 0.798-0.888 1.513-1.653 2.144v0c-1.032 0.885-2.358 1.836-3.977 2.852-1.619 1.016-3.407 1.994-5.363 2.935-1.961 0.936-3.959 1.751-5.995 2.444-2.041 0.689-3.972 1.16-5.793 1.414v0c-1.576 0.237-3.077 0.224-4.503-0.039-1.427-0.263-2.642-0.849-3.647-1.76z" fill="#f5a1e8" data-fill-palette-color="primary"></path><path d="M250.566 94.452v0c-0.599-1.617-0.576-3.104 0.07-4.462 0.645-1.358 1.914-2.387 3.805-3.088v0c1.342-0.497 2.779-0.728 4.311-0.692 1.53 0.029 3.019 0.343 4.469 0.94 1.443 0.599 2.746 1.479 3.91 2.64 1.17 1.158 2.079 2.613 2.728 4.363v0c0.599 1.617 0.833 3.103 0.703 4.46-0.126 1.347-0.662 2.196-1.608 2.547v0c-0.243 0.09-0.57 0.178-0.981 0.265-0.409 0.093-0.75 0.143-1.024 0.15v0c-0.246 0.004-0.482-0.036-0.709-0.119-0.236-0.087-0.399-0.252-0.488-0.495v0c-0.038-0.102-0.071-0.319-0.099-0.65v0c-0.603 0.1-1.185 0.224-1.747 0.375-0.558 0.141-1.106 0.311-1.643 0.51v0c-1.029 0.381-1.882 0.875-2.558 1.481-0.679 0.6-0.944 1.396-0.795 2.387v0c0.039 0.262 0.031 0.486-0.023 0.674-0.054 0.187-0.257 0.346-0.608 0.476v0c-0.294 0.109-0.698 0.175-1.213 0.198-0.515 0.023-1.032-0.108-1.553-0.395-0.518-0.281-0.922-0.811-1.21-1.59v0c-0.391-1.054-0.303-2.006 0.262-2.855 0.556-0.853 1.547-1.543 2.972-2.071v0c-1.586-0.241-3.005-0.766-4.256-1.574-1.251-0.808-2.156-1.967-2.715-3.475zM255.253 94.188v0c0.4 1.08 1.087 1.905 2.061 2.474 0.983 0.574 2.071 0.901 3.264 0.983v0c0.754 0.055 1.545 0.02 2.37-0.104 0.828-0.118 1.629-0.291 2.402-0.519v0c0.047-0.541 0.029-1.13-0.055-1.767-0.086-0.644-0.248-1.289-0.487-1.935v0c-0.611-1.649-1.595-2.825-2.953-3.528-1.367-0.708-2.779-0.792-4.235-0.252v0c-1.08 0.4-1.839 1.019-2.277 1.857-0.438 0.838-0.468 1.768-0.09 2.791z" fill="#f5a1e8" data-fill-palette-color="primary"></path><path d="M9.346 184.727v0c-0.8-2.305-0.823-4.147-0.069-5.528 0.746-1.384 2.023-2.391 3.832-3.018v0c0.47-0.163 1.054-0.319 1.753-0.468 0.699-0.149 1.542-0.316 2.532-0.5v0c1.441-0.255 2.715-0.513 3.821-0.775 1.109-0.255 2.304-0.605 3.585-1.05v0c1.474-0.512 2.654-0.968 3.539-1.37v0c-0.442-0.38-0.701-0.68-0.777-0.899v0c-0.154-0.444 0.271-0.841 1.275-1.189v0c0.779-0.27 1.499-0.326 2.161-0.166 0.661 0.16 1.367 0.561 2.116 1.202v0c0.782 0.63 1.567 1.501 2.357 2.612 0.79 1.111 1.432 2.378 1.925 3.801v0c0.8 2.305 0.88 4.239 0.241 5.803-0.642 1.558-1.826 2.636-3.552 3.235v0c-1.107 0.384-2.216 0.506-3.325 0.364-1.112-0.148-2.177-0.525-3.195-1.13v0c0.651 3.662-0.749 6.092-4.199 7.291v0c-1.861 0.646-3.74 0.707-5.64 0.183-1.892-0.526-3.584-1.544-5.074-3.053v0c-1.471-1.452-2.573-3.233-3.306-5.345zM14.552 184.791v0c0.434 1.249 1.001 2.322 1.701 3.218 0.701 0.896 1.492 1.534 2.374 1.914 0.882 0.379 1.767 0.414 2.656 0.106v0c1.14-0.396 1.803-1.081 1.992-2.055 0.197-0.97 0.112-1.983-0.255-3.039v0c-0.154-0.444-0.389-0.987-0.705-1.627v0c-0.154-0.257-0.294-0.565-0.419-0.926v0c-0.212-0.612-0.138-1.207 0.223-1.787 0.364-0.574 0.919-0.99 1.666-1.25v0c0.528-0.183 0.944-0.065 1.249 0.357v0c2.066 3.084 4.197 4.245 6.392 3.483v0c1.751-0.608 2.206-2.122 1.366-4.543v0c-0.308-0.888-0.841-1.934-1.597-3.136v0c-1.365 0.474-2.814 0.901-4.348 1.283-1.536 0.375-3.157 0.703-4.863 0.985v0c-1.172 0.219-2.158 0.414-2.957 0.583-0.8 0.169-1.434 0.336-1.905 0.499v0c-1.5 0.521-2.433 1.263-2.798 2.227-0.369 0.972-0.294 2.208 0.228 3.708z" fill="#f5a1e8" data-fill-palette-color="primary"></path><path d="M42.444 237.817v0c-0.303-0.274-0.502-0.583-0.596-0.925-0.089-0.338-0.003-0.605 0.257-0.802v0c1.911-1.45 3.795-2.972 5.651-4.564 1.856-1.592 3.614-3.306 5.274-5.14v0c1.459-1.611 2.728-3.119 3.807-4.523 1.074-1.409 1.862-2.98 2.365-4.713v0c0.104-0.338 0.203-0.625 0.297-0.862 0.09-0.231 0.206-0.425 0.348-0.581v0c0.375-0.414 0.984-0.594 1.826-0.539 0.847 0.05 1.543 0.322 2.089 0.815v0c0.763 0.691 0.854 1.646 0.272 2.867-0.586 1.216-1.728 2.761-3.425 4.635v0c-2.036 2.248-3.94 4.086-5.712 5.516-1.777 1.434-3.157 2.496-4.141 3.187v0l0.074 0.191c1.482-0.763 2.989-1.366 4.521-1.809 1.527-0.438 2.982-0.587 4.363-0.447 1.382 0.139 2.618 0.703 3.71 1.69v0c1.157 1.048 1.72 2.192 1.69 3.434-0.035 1.237-0.517 2.368-1.446 3.393v0c-0.398 0.439-0.823 0.822-1.275 1.149-0.447 0.321-0.896 0.619-1.345 0.892v0c-0.422 0.252-0.84 0.517-1.256 0.793-0.411 0.281-0.785 0.608-1.124 0.982v0c-0.613 0.677-0.947 1.376-1.003 2.098-0.056 0.722 0.109 1.418 0.494 2.089v0c0.115 0.178 0.176 0.339 0.183 0.483 0.007 0.144-0.078 0.315-0.257 0.512v0c-0.178 0.197-0.503 0.423-0.972 0.677-0.465 0.25-1.016 0.376-1.653 0.379-0.632-0.002-1.287-0.31-1.964-0.923v0c-0.874-0.791-1.269-1.715-1.186-2.771 0.088-1.051 0.575-2.067 1.463-3.047v0c0.435-0.48 0.929-0.929 1.482-1.347 0.549-0.413 1.097-0.79 1.644-1.131v0c0.523-0.354 1.01-0.694 1.462-1.021 0.452-0.326 0.806-0.631 1.062-0.913v0c0.91-1.005 0.843-1.981-0.203-2.929v0c-0.874-0.791-1.923-1.176-3.147-1.154-1.229 0.017-2.509 0.288-3.839 0.813-1.33 0.524-2.601 1.152-3.815 1.883v0l-1.002 1.106c-0.732 0.808-1.571 1.262-2.516 1.362-0.941 0.095-1.76-0.173-2.457-0.805z" fill="#f5a1e8" data-fill-palette-color="primary"></path><path d="M104.559 273.465v0c-1.715-0.418-2.961-1.29-3.74-2.615-0.785-1.328-0.934-2.991-0.446-4.991v0c0.348-1.43 0.973-2.786 1.874-4.067 0.906-1.273 2.026-2.354 3.358-3.244 1.338-0.887 2.836-1.491 4.491-1.809 1.651-0.327 3.407-0.264 5.268 0.189v0c1.715 0.418 3.106 1.069 4.174 1.953 1.076 0.879 1.493 1.819 1.249 2.819v0c-0.063 0.258-0.175 0.589-0.336 0.991-0.153 0.398-0.304 0.715-0.453 0.953v0c-0.143 0.211-0.316 0.39-0.52 0.536-0.204 0.147-0.435 0.189-0.693 0.125v0c-0.113-0.027-0.314-0.122-0.604-0.284v0c-0.266 0.574-0.495 1.139-0.687 1.695-0.198 0.555-0.368 1.12-0.508 1.697v0c-0.265 1.086-0.334 2.09-0.207 3.011 0.12 0.92 0.641 1.601 1.564 2.044v0c0.245 0.116 0.433 0.253 0.563 0.41 0.131 0.151 0.152 0.412 0.062 0.783v0c-0.076 0.311-0.253 0.692-0.532 1.144-0.277 0.445-0.684 0.808-1.223 1.091-0.537 0.276-1.22 0.313-2.047 0.111v0c-1.112-0.271-1.871-0.887-2.275-1.848-0.404-0.961-0.421-2.2-0.052-3.716v0c-1.108 1.21-2.367 2.113-3.775 2.71-1.401 0.599-2.903 0.703-4.505 0.312zM107.026 269.342v0c1.139 0.277 2.232 0.165 3.281-0.337 1.048-0.502 1.946-1.237 2.694-2.205v0c0.486-0.611 0.914-1.303 1.284-2.076 0.364-0.774 0.673-1.554 0.928-2.341v0c-0.428-0.343-0.94-0.664-1.533-0.963-0.595-0.292-1.237-0.522-1.926-0.69v0c-1.741-0.424-3.303-0.261-4.685 0.49-1.377 0.759-2.254 1.909-2.63 3.452v0c-0.279 1.145-0.189 2.142 0.271 2.991 0.458 0.855 1.23 1.415 2.316 1.679z" fill="#f5a1e8" data-fill-palette-color="primary"></path><path d="M172.728 274.232v0c-0.773 0.196-1.496 0.13-2.17-0.199-0.674-0.328-1.229-1.119-1.666-2.372v0c-0.305-0.956-0.699-1.995-1.18-3.118-0.481-1.122-0.998-2.176-1.549-3.161-0.552-0.985-1.091-1.727-1.619-2.226v0c-0.279-0.267-0.56-0.449-0.845-0.546-0.276-0.092-0.666-0.105-1.17-0.041v0c-0.317 0.052-0.554 0.007-0.709-0.136-0.162-0.142-0.29-0.397-0.385-0.768v0c-0.296-1.169-0.195-2.116 0.304-2.839 0.507-0.719 1.173-1.183 1.999-1.393v0c0.852-0.216 1.636-0.119 2.351 0.291 0.71 0.418 1.34 1.042 1.888 1.873 0.541 0.833 1.014 1.782 1.417 2.847 0.412 1.07 0.758 2.16 1.039 3.269v0c0.115 0.456 0.23 0.936 0.344 1.442 0.112 0.499 0.212 0.92 0.299 1.264v0c0.079 0.31 0.203 0.536 0.372 0.675 0.169 0.14 0.442 0.162 0.818 0.067v0c0.456-0.115 0.947-0.384 1.473-0.805 0.533-0.423 1.028-0.967 1.485-1.631 0.452-0.656 0.782-1.383 0.987-2.18 0.212-0.799 0.211-1.625-0.005-2.477v0c-0.124-0.489-0.334-0.984-0.63-1.486-0.296-0.502-0.662-0.894-1.099-1.177v0c-0.431-0.285-0.752-0.513-0.964-0.683-0.214-0.178-0.357-0.409-0.429-0.693v0c-0.131-0.515-0.016-1.047 0.345-1.595 0.369-0.543 0.841-1.025 1.416-1.445 0.576-0.42 1.104-0.691 1.586-0.814v0c0.826-0.209 1.441 0 1.847 0.629 0.404 0.622 0.71 1.346 0.919 2.172v0c0.398 1.572 0.527 3.287 0.386 5.143-0.135 1.855-0.499 3.649-1.094 5.381-0.596 1.726-1.383 3.198-2.361 4.416-0.985 1.22-2.118 1.992-3.4 2.316z" fill="#f5a1e8" data-fill-palette-color="primary"></path><path d="M234.675 256.139v0c-0.895 0.809-1.88 1.263-2.957 1.364-1.081 0.105-1.987-0.247-2.718-1.057v0c-0.571-0.632-0.868-1.347-0.891-2.144-0.023-0.788 0.251-1.44 0.822-1.956v0c0.258-0.233 0.481-0.357 0.671-0.371 0.189-0.015 0.366 0.004 0.532 0.056v0c0.428 0.128 0.849 0.192 1.264 0.194 0.42-0.003 0.825-0.18 1.214-0.532v0c0.526-0.475 0.867-1.119 1.024-1.932 0.152-0.817 0.219-1.654 0.199-2.508v0c-0.001-0.753-0.09-1.751-0.269-2.996-0.173-1.249-0.443-2.604-0.808-4.065v0c-0.106 0.849-0.281 1.554-0.526 2.116-0.245 0.562-0.555 1.012-0.93 1.35v0c-0.455 0.411-1.056 0.646-1.801 0.705-0.741 0.054-1.592-0.338-2.554-1.178v0c-0.715-0.658-1.558-1.343-2.531-2.053-0.978-0.706-1.973-1.344-2.986-1.917-1.009-0.567-1.969-0.958-2.879-1.172v0c-0.389-0.126-0.74-0.163-1.051-0.111-0.316 0.047-0.679 0.214-1.09 0.502v0c-0.281 0.217-0.519 0.295-0.713 0.232-0.195-0.063-0.42-0.236-0.676-0.519v0c-0.713-0.789-1.069-1.62-1.069-2.493 0.006-0.878 0.378-1.65 1.116-2.318v0c0.895-0.809 1.85-1.048 2.866-0.717 1.016 0.331 2.111 0.862 3.285 1.592v0c0.463 0.289 1.045 0.704 1.747 1.246 0.702 0.532 1.437 1.127 2.204 1.783 0.773 0.652 1.488 1.296 2.146 1.932v0c0.454 0.462 0.942 0.458 1.463-0.013v0c0.703-0.635 1.171-1.458 1.405-2.469 0.239-1.006 0.245-2.041 0.02-3.104-0.231-1.068-0.691-1.984-1.382-2.748v0c-0.393-0.435-0.803-0.776-1.229-1.024-0.421-0.253-0.883-0.392-1.383-0.417v0c-0.455-0.066-0.821-0.121-1.099-0.165-0.282-0.048-0.522-0.181-0.718-0.398v0c-0.334-0.369-0.475-0.876-0.423-1.519 0.052-0.644 0.225-1.296 0.518-1.957 0.294-0.661 0.628-1.16 1.002-1.498v0c0.652-0.59 1.368-0.672 2.148-0.247 0.785 0.421 1.457 1.053 2.018 1.897v0c0.796 1.145 1.628 2.594 2.494 4.345 0.877 1.752 1.694 3.673 2.453 5.762 0.758 2.089 1.385 4.21 1.879 6.363 0.495 2.153 0.776 4.167 0.846 6.042v0c0.087 1.63-0.077 3.156-0.492 4.578-0.415 1.431-1.135 2.611-2.161 3.539z" fill="#f5a1e8" data-fill-palette-color="primary"></path><path d="M268.488 190.777v0c-0.617 1.654-1.629 2.789-3.038 3.406-1.411 0.623-3.08 0.575-5.008-0.145v0c-1.379-0.514-2.652-1.295-3.819-2.34-1.158-1.05-2.099-2.289-2.825-3.716-0.724-1.434-1.146-2.991-1.268-4.674-0.131-1.678 0.139-3.414 0.807-5.208v0c0.617-1.654 1.427-2.959 2.432-3.915 1-0.965 1.982-1.268 2.946-0.909v0c0.249 0.093 0.564 0.243 0.945 0.451 0.377 0.199 0.674 0.386 0.892 0.561v0c0.193 0.166 0.35 0.359 0.472 0.58 0.122 0.22 0.136 0.454 0.043 0.703v0c-0.04 0.109-0.158 0.297-0.353 0.567v0c0.538 0.332 1.072 0.625 1.602 0.881 0.528 0.262 1.069 0.497 1.625 0.704v0c1.047 0.391 2.036 0.577 2.966 0.561 0.928-0.01 1.665-0.448 2.213-1.313v0c0.144-0.23 0.302-0.4 0.474-0.51 0.166-0.113 0.427-0.102 0.785 0.03v0c0.3 0.112 0.658 0.333 1.073 0.663 0.409 0.327 0.722 0.775 0.939 1.343 0.211 0.566 0.167 1.248-0.13 2.046v0c-0.4 1.073-1.101 1.753-2.103 2.041-1.002 0.288-2.234 0.16-3.697-0.386v0c1.071 1.243 1.82 2.599 2.247 4.068 0.429 1.462 0.356 2.966-0.22 4.511zM264.684 187.842v0c0.41-1.098 0.427-2.197 0.051-3.298-0.375-1.1-1-2.078-1.872-2.935v0c-0.55-0.554-1.186-1.061-1.91-1.52-0.726-0.453-1.464-0.852-2.216-1.197v0c-0.391 0.385-0.77 0.855-1.136 1.409-0.36 0.557-0.664 1.167-0.912 1.831v0c-0.626 1.679-0.648 3.249-0.066 4.711 0.591 1.457 1.631 2.463 3.118 3.017v0c1.105 0.412 2.105 0.44 3.002 0.084 0.903-0.354 1.55-1.055 1.941-2.102z" fill="#f5a1e8" data-fill-palette-color="primary"></path><path d="M0 139.087c0-6.183 5.012-11.195 11.195-11.195 6.183 0 11.195 5.012 11.196 11.195 0 6.183-5.012 11.195-11.196 11.196-6.183 0-11.195-5.012-11.195-11.196z" fill="#f5a1e8" data-fill-palette-color="primary"></path><path d="M257.609 139.087c0-6.183 5.012-11.195 11.196-11.195 6.183 0 11.195 5.012 11.195 11.195 0 6.183-5.012 11.195-11.195 11.196-6.183 0-11.195-5.012-11.196-11.196z" fill="#f5a1e8" data-fill-palette-color="primary"></path></g><g id="text-1"></g></svg></g></svg></g></svg></g></svg></g><defs></defs></svg><rect width="280" height="280" fill="none" stroke="none" visibility="hidden"></rect></g></svg></g></svg>